<svg xmlns="http://www.w3.org/2000/svg" viewBox="0 0 1000 900"><defs><filter id="paper"><feTurbulence baseFrequency=".012" numOctaves="3" seed="11" result="n"/><feDisplacementMap in="SourceGraphic" in2="n" scale="5"/></filter><filter id="shadow"><feDropShadow dx="0" dy="9" stdDeviation="8" flood-opacity=".16"/></filter><clipPath id="pl"><path d="M170 165L300 90l165 20 125-35 145 55 95 105 5 145 75 95-50 125 20 105-120 80-140 5-120 65-140-35-105 20-80-100-15-125-85-80 20-125-45-100 70-95z"/></clipPath><g id="church" fill="#6d5941" stroke="#4d4030" stroke-width="3"><rect x="-36" y="-2" width="72" height="48"/><path d="M-26-2l10-43 10 43M6-2l10-43 10 43M-7 46V12H7v34"/><circle cx="0" cy="-4" r="6" fill="#d9b76f"/></g><g id="hall" fill="#755f45" stroke="#4d4030" stroke-width="3"><rect x="-44" y="5" width="88" height="42"/><path d="M-30 5V-20h60V5M-17-20L0-45 17-20"/><rect x="-6" y="16" width="12" height="31"/></g></defs><rect width="1000" height="900" fill="#fbf8ef"/><g fill="none" stroke="#8fb6c6" stroke-width="3" opacity=".42"><path d="M50 170q55-28 110 0t110 0"/><path d="M740 110q55-28 110 0t110 0"/><path d="M760 760q55-28 110 0t110 0"/></g><g clip-path="url(#pl)" filter="url(#paper)"><rect x="70" y="55" width="840" height="780" fill="#e8dfbd"/><circle cx="250" cy="230" r="255" fill="#cbdbea"/><circle cx="520" cy="210" r="245" fill="#d8e5c4"/><circle cx="780" cy="300" r="245" fill="#e7c8b2"/><circle cx="310" cy="520" r="280" fill="#e1d2e8"/><circle cx="605" cy="525" r="280" fill="#efd99a"/><circle cx="780" cy="650" r="235" fill="#c9dfd8"/><circle cx="470" cy="735" r="245" fill="#e3c6c6"/><g stroke="#fff" stroke-width="4" opacity=".65"><path d="M105 300L850 300"/><path d="M95 500L870 500"/><path d="M180 680L820 690"/><path d="M310 95L330 810"/><path d="M565 90L560 825"/><path d="M760 140L700 790"/></g></g><path d="M170 165L300 90l165 20 125-35 145 55 95 105 5 145 75 95-50 125 20 105-120 80-140 5-120 65-140-35-105 20-80-100-15-125-85-80 20-125-45-100 70-95z" fill="none" stroke="#918b7e" stroke-width="6" stroke-linejoin="round" filter="url(#shadow)"/><g filter="url(#shadow)"><g transform="translate(525 145) scale(.78)"><use href="#church"/></g><g transform="translate(285 375) scale(.72)"><use href="#hall"/></g><g transform="translate(690 390) scale(.78)"><use href="#church"/></g><g transform="translate(555 485) scale(.68)"><use href="#church"/></g><g transform="translate(300 575) scale(.74)"><use href="#church"/></g><g transform="translate(785 545) scale(.70)"><use href="#church"/></g><g transform="translate(505 690) scale(.75)"><use href="#hall"/></g><g transform="translate(650 725) scale(.80)"><use href="#church"/></g></g><g transform="translate(825 120)" fill="#c99755" stroke="#7c603d" stroke-width="3"><path d="M0 42C-28 13-24-27 0-40C24-27 28 13 0 42z"/><path d="M0-40v82"/><rect x="-8" y="42" width="16" height="11"/></g><g transform="translate(145 735)" fill="#c7a86b" stroke="#78654d" stroke-width="3"><path d="M-30 12h60l-8 8h-44z"/><path d="M0 12V-28l32 28z" fill="#e7dfcc"/></g></svg>