<svg xmlns="http://www.w3.org/2000/svg" viewBox="0 0 1132 1120">
<defs>
 <filter id="wc" x="-10%" y="-10%" width="120%" height="120%"><feTurbulence type="fractalNoise" baseFrequency=".018" numOctaves="3" seed="11" result="n"/><feDisplacementMap in="SourceGraphic" in2="n" scale="3"/></filter>
 <clipPath id="country"><path d="M180 210L330 115l180 20 140-45 175 70 105 120 5 190 85 120-60 150 25 125-145 95-160 8-120 77-150-45-130 25-98-125-22-140-95-95 25-150-50-125 80-110z"/></clipPath>
 <g id="cathedral"><path d="M-50 35h100v50h-100z" fill="#caa979" stroke="#574431" stroke-width="3"/><path d="M-36 35l14-70 14 70M8 35l14-70 14 70" fill="#9c744f" stroke="#574431" stroke-width="3"/><rect x="-8" y="55" width="16" height="30" fill="#805f42"/></g>
 <g id="gate"><path d="M-58 32h116v48h-116z" fill="#c9aa7d" stroke="#574431" stroke-width="3"/><path d="M-62 32L0 8l62 24z" fill="#a77e56" stroke="#574431" stroke-width="3"/><g fill="#77573e"><rect x="-42" y="38" width="7" height="42"/><rect x="-22" y="38" width="7" height="42"/><rect x="-3" y="38" width="7" height="42"/><rect x="16" y="38" width="7" height="42"/><rect x="35" y="38" width="7" height="42"/></g></g>
 <g id="tower"><rect x="-22" y="-8" width="44" height="78" fill="#c6a371" stroke="#574431" stroke-width="3"/><path d="M-30-8L0-55 30-8z" fill="#916947" stroke="#574431" stroke-width="3"/><circle cx="0" cy="20" r="5" fill="#f0d188" stroke="#574431" stroke-width="2"/></g>
 <g id="castle"><rect x="-55" y="25" width="110" height="50" fill="#c7a474" stroke="#574431" stroke-width="3"/><rect x="-47" y="-3" width="25" height="78" fill="#c7a474" stroke="#574431" stroke-width="3"/><rect x="22" y="-3" width="25" height="78" fill="#c7a474" stroke="#574431" stroke-width="3"/><path d="M-52-3l18-27 18 27M17-3l18-27 18 27" fill="#906845" stroke="#574431" stroke-width="3"/><rect x="-8" y="49" width="16" height="26" fill="#7b5a3e"/></g>
</defs>
<rect width="1132" height="1120" fill="#fff"/>
<g opacity=".5" stroke="#a8cfdd" fill="none" stroke-width="2"><path d="M65 165q12-8 24 0t24 0t24 0"/><path d="M945 815q12-8 24 0t24 0t24 0"/></g>
<g clip-path="url(#country)" filter="url(#wc)">
 <rect width="1132" height="1120" fill="#efe2bd"/>
 <ellipse cx="230" cy="225" rx="300" ry="285" fill="#cbd9e9" opacity=".9"/><ellipse cx="500" cy="210" rx="310" ry="295" fill="#d9e5c5" opacity=".9"/><ellipse cx="800" cy="290" rx="305" ry="300" fill="#e8c8b2" opacity=".9"/><ellipse cx="275" cy="560" rx="330" ry="320" fill="#e2d1e8" opacity=".9"/><ellipse cx="620" cy="520" rx="335" ry="325" fill="#f1df9c" opacity=".9"/><ellipse cx="875" cy="675" rx="285" ry="285" fill="#c9e1dc" opacity=".9"/><ellipse cx="510" cy="850" rx="305" ry="295" fill="#e5c6c6" opacity=".9"/>
 <g stroke="#fff" stroke-width="5" opacity=".85" fill="none"><path d="M115 360L940 360"/><path d="M105 600L960 600"/><path d="M190 820L900 830"/><path d="M330 130L350 1015"/><path d="M630 110L620 1030"/><path d="M855 180L800 930"/></g>
</g>
<path d="M180 210L330 115l180 20 140-45 175 70 105 120 5 190 85 120-60 150 25 125-145 95-160 8-120 77-150-45-130 25-98-125-22-140-95-95 25-150-50-125 80-110z" fill="none" stroke="#999185" stroke-width="6" stroke-linejoin="round"/>
<g filter="url(#wc)"><g transform="translate(560 190) scale(.82)"><use href="#cathedral"/></g><g transform="translate(330 435) scale(.82)"><use href="#tower"/></g><g transform="translate(775 440) scale(.86)"><use href="#cathedral"/></g><g transform="translate(620 590) scale(.82)"><use href="#tower"/></g><g transform="translate(330 680) scale(.78)"><use href="#gate"/></g><g transform="translate(885 650) scale(.76)"><use href="#castle"/></g><g transform="translate(550 835) scale(.78)"><use href="#castle"/></g><g transform="translate(760 845) scale(.80)"><use href="#cathedral"/></g></g>
<g transform="translate(955 110)" stroke="#7d623f" stroke-width="3"><ellipse cx="0" cy="0" rx="30" ry="47" fill="#e2a85e"/><path d="M0-47v94M-15-42L-5 40M15-42L5 40"/><path d="M-9 47v14M9 47v14"/><rect x="-10" y="61" width="20" height="12" fill="#c39755"/></g>
<g transform="translate(145 865)" stroke="#7d623f" stroke-width="3"><path d="M-35 12h70l-12 13h-46z" fill="#d6b873"/><path d="M0 12V-38l36 38z" fill="#f0ead8"/><path d="M0-28L-22 8H0z" fill="#f7f2e7"/></g>
</svg>